<svg xmlns="http://www.w3.org/2000/svg" xmlns:xlink="http://www.w3.org/1999/xlink" width="300" zoomAndPan="magnify" viewBox="0 0 224.87999 30.000001" height="40" preserveAspectRatio="xMidYMid meet" version="1.0"><defs><g/></defs><path fill="#15a149" d="M 14.71875 8.660156 C 15.882812 9.507812 17.011719 9.035156 17.230469 7.613281 L 18.179688 1.453125 C 18.398438 0.03125 18.753906 0.03125 18.972656 1.453125 L 19.921875 7.613281 C 20.140625 9.035156 21.273438 9.507812 22.433594 8.660156 L 27.796875 4.765625 C 28.957031 3.917969 29.21875 4.175781 28.371094 5.339844 L 24.472656 10.699219 C 23.628906 11.863281 24.097656 12.992188 25.519531 13.210938 L 31.683594 14.160156 C 33.105469 14.378906 33.105469 14.738281 31.683594 14.957031 L 25.519531 15.90625 C 24.097656 16.125 23.628906 17.253906 24.472656 18.417969 L 28.371094 23.777344 C 29.21875 24.941406 28.957031 25.199219 27.796875 24.355469 L 22.433594 20.457031 C 21.273438 19.609375 20.140625 20.082031 19.921875 21.503906 L 18.972656 27.667969 C 18.753906 29.089844 18.398438 29.089844 18.179688 27.667969 L 17.230469 21.503906 C 17.011719 20.082031 15.882812 19.609375 14.71875 20.457031 L 9.359375 24.355469 C 8.195312 25.199219 7.980469 24.976562 8.882812 23.855469 L 13.316406 18.339844 C 14.21875 17.21875 13.789062 16.140625 12.363281 15.945312 L 5.339844 14.976562 C 3.914062 14.777344 3.910156 14.433594 5.332031 14.210938 L 11.632812 13.222656 C 13.054688 13 13.527344 11.863281 12.679688 10.699219 L 8.78125 5.339844 C 7.933594 4.179688 8.195312 3.917969 9.359375 4.765625 Z M 14.71875 8.660156 " fill-opacity="1" fill-rule="nonzero"/><g fill="#ffffff" fill-opacity="1"><g transform="translate(39.217769, 21.896563)"><g><path d="M 1.34375 -7.109375 C 1.34375 -8.191406 1.523438 -9.191406 1.890625 -10.109375 C 2.265625 -11.035156 2.785156 -11.84375 3.453125 -12.53125 C 4.890625 -14 6.769531 -14.734375 9.09375 -14.734375 C 11.0625 -14.734375 12.640625 -14.082031 13.828125 -12.78125 C 15.003906 -11.53125 15.59375 -9.953125 15.59375 -8.046875 C 15.59375 -7.316406 15.535156 -6.820312 15.421875 -6.5625 C 14.503906 -6.300781 12.628906 -6.171875 9.796875 -6.171875 L 4.921875 -6.171875 C 5.160156 -5.179688 5.71875 -4.410156 6.59375 -3.859375 C 7.46875 -3.316406 8.609375 -3.046875 10.015625 -3.046875 C 11.484375 -3.046875 12.742188 -3.304688 13.796875 -3.828125 C 14.066406 -3.960938 14.269531 -4.09375 14.40625 -4.21875 C 14.394531 -3.832031 14.375 -3.4375 14.34375 -3.03125 L 14.1875 -0.875 C 13.488281 -0.394531 12.351562 -0.0625 10.78125 0.125 C 10.320312 0.175781 9.882812 0.203125 9.46875 0.203125 C 7.125 0.203125 5.1875 -0.476562 3.65625 -1.84375 C 2.113281 -3.21875 1.34375 -4.972656 1.34375 -7.109375 Z M 11.90625 -8.859375 C 11.53125 -10.835938 10.453125 -11.828125 8.671875 -11.828125 C 7.265625 -11.828125 6.203125 -11.222656 5.484375 -10.015625 C 5.253906 -9.648438 5.082031 -9.242188 4.96875 -8.796875 C 5.1875 -8.785156 5.457031 -8.773438 5.78125 -8.765625 L 6.8125 -8.765625 C 7.144531 -8.753906 7.46875 -8.75 7.78125 -8.75 L 8.578125 -8.75 C 9.046875 -8.75 9.503906 -8.753906 9.953125 -8.765625 L 11.09375 -8.8125 C 11.394531 -8.820312 11.664062 -8.835938 11.90625 -8.859375 Z M 11.90625 -8.859375 "/></g></g></g><g fill="#ffffff" fill-opacity="1"><g transform="translate(55.777117, 21.896563)"><g><path d="M 11.578125 -0.859375 C 10.265625 -0.148438 9.078125 0.203125 8.015625 0.203125 C 6.960938 0.203125 6.054688 0.101562 5.296875 -0.09375 C 4.535156 -0.289062 3.894531 -0.582031 3.375 -0.96875 C 2.300781 -1.75 1.765625 -2.882812 1.765625 -4.375 C 1.765625 -5.695312 2.421875 -6.800781 3.734375 -7.6875 C 5.148438 -8.644531 7.078125 -9.125 9.515625 -9.125 L 10.0625 -9.109375 C 10.175781 -9.097656 10.300781 -9.09375 10.4375 -9.09375 C 10.582031 -9.09375 10.707031 -9.082031 10.8125 -9.0625 C 10.738281 -10.53125 10.101562 -11.390625 8.90625 -11.640625 C 8.507812 -11.722656 8.085938 -11.765625 7.640625 -11.765625 C 7.191406 -11.765625 6.753906 -11.722656 6.328125 -11.640625 C 5.898438 -11.566406 5.484375 -11.46875 5.078125 -11.34375 C 4.179688 -11.050781 3.539062 -10.722656 3.15625 -10.359375 L 3.109375 -10.390625 L 2.703125 -13.4375 C 4.328125 -14.300781 6.109375 -14.734375 8.046875 -14.734375 C 11.054688 -14.734375 12.976562 -13.648438 13.8125 -11.484375 C 14.082031 -10.785156 14.21875 -10.003906 14.21875 -9.140625 L 14.21875 -4.140625 C 14.21875 -3.066406 14.597656 -2.335938 15.359375 -1.953125 L 12.84375 0.34375 C 12.320312 0.0703125 11.898438 -0.328125 11.578125 -0.859375 Z M 10.828125 -6.5625 C 10.578125 -6.613281 10.320312 -6.640625 10.0625 -6.640625 L 9.5 -6.640625 C 7.46875 -6.640625 6.171875 -6.1875 5.609375 -5.28125 C 5.441406 -5.007812 5.359375 -4.726562 5.359375 -4.4375 C 5.359375 -4.144531 5.410156 -3.882812 5.515625 -3.65625 C 5.628906 -3.425781 5.8125 -3.238281 6.0625 -3.09375 C 6.539062 -2.820312 7.25 -2.6875 8.1875 -2.6875 C 9.132812 -2.6875 10.019531 -2.910156 10.84375 -3.359375 C 10.832031 -3.460938 10.828125 -3.566406 10.828125 -3.671875 Z M 10.828125 -6.5625 "/></g></g></g><g fill="#ffffff" fill-opacity="1"><g transform="translate(72.281129, 21.896563)"><g><path d="M 6.90625 0.203125 C 4.300781 0.203125 2.34375 -0.269531 1.03125 -1.21875 C 1.039062 -1.488281 1.066406 -1.800781 1.109375 -2.15625 L 1.234375 -3.15625 C 1.304688 -3.8125 1.347656 -4.21875 1.359375 -4.375 C 1.378906 -4.539062 1.394531 -4.628906 1.40625 -4.640625 C 1.414062 -4.648438 1.488281 -4.570312 1.625 -4.40625 C 1.769531 -4.25 2.035156 -4.054688 2.421875 -3.828125 C 2.804688 -3.597656 3.253906 -3.394531 3.765625 -3.21875 C 4.859375 -2.84375 6 -2.65625 7.1875 -2.65625 C 8.78125 -2.65625 9.578125 -3.1875 9.578125 -4.25 C 9.578125 -4.59375 9.425781 -4.84375 9.125 -5 C 8.582031 -5.28125 7.78125 -5.488281 6.71875 -5.625 C 5.664062 -5.769531 4.800781 -5.984375 4.125 -6.265625 C 3.457031 -6.546875 2.910156 -6.878906 2.484375 -7.265625 C 1.703125 -7.992188 1.3125 -8.945312 1.3125 -10.125 C 1.3125 -11.5625 1.863281 -12.691406 2.96875 -13.515625 C 4.070312 -14.328125 5.59375 -14.734375 7.53125 -14.734375 C 9.445312 -14.734375 11.082031 -14.1875 12.4375 -13.09375 C 12.375 -12.851562 12.304688 -12.625 12.234375 -12.40625 C 12.015625 -11.800781 11.851562 -11.363281 11.75 -11.09375 L 11.4375 -10.28125 C 11.414062 -10.207031 11.398438 -10.171875 11.390625 -10.171875 C 11.378906 -10.171875 11.304688 -10.265625 11.171875 -10.453125 C 10.597656 -11.128906 9.695312 -11.570312 8.46875 -11.78125 C 8.082031 -11.851562 7.691406 -11.890625 7.296875 -11.890625 C 5.617188 -11.890625 4.78125 -11.382812 4.78125 -10.375 C 4.78125 -10.019531 4.957031 -9.753906 5.3125 -9.578125 C 5.96875 -9.222656 6.863281 -8.960938 8 -8.796875 C 9.132812 -8.628906 10 -8.40625 10.59375 -8.125 C 11.1875 -7.84375 11.660156 -7.503906 12.015625 -7.109375 C 12.679688 -6.390625 13.015625 -5.4375 13.015625 -4.25 C 13.015625 -2.945312 12.492188 -1.890625 11.453125 -1.078125 C 10.367188 -0.222656 8.851562 0.203125 6.90625 0.203125 Z M 6.90625 0.203125 "/></g></g></g><g fill="#ffffff" fill-opacity="1"><g transform="translate(86.474857, 21.896563)"><g><path d="M 0.703125 4.8125 L 1.625 4.078125 C 2.988281 2.960938 4.125 1.316406 5.03125 -0.859375 L 5.671875 -2.390625 L 0.375 -14.453125 L 4.25 -14.453125 L 7.5625 -6.09375 L 10.65625 -14.453125 L 14.640625 -14.453125 C 14.160156 -13.785156 13.570312 -12.550781 12.875 -10.75 L 10.796875 -5.609375 C 8.023438 0.910156 5.851562 4.800781 4.28125 6.0625 Z M 0.703125 4.8125 "/></g></g></g><g fill="#15a149" fill-opacity="1"><g transform="translate(100.66472, 21.896563)"><g><path d="M 8.9375 -12.859375 C 8.863281 -12.597656 8.828125 -11.925781 8.828125 -10.84375 L 8.828125 -9.625 L 5.484375 -9.625 L 5.484375 0 L 2.109375 0 L 2.109375 -9.625 L 0.0625 -9.625 C 0.0703125 -10.238281 0.0820312 -10.78125 0.09375 -11.25 L 0.125 -12.71875 L 0.125 -12.859375 L 2.109375 -12.859375 L 2.109375 -13.71875 C 2.109375 -15.9375 2.625 -17.71875 3.65625 -19.0625 C 4.726562 -20.457031 6.210938 -21.15625 8.109375 -21.15625 C 8.910156 -21.15625 9.441406 -21.097656 9.703125 -20.984375 L 9.703125 -17.515625 L 9.6875 -17.4375 C 9.332031 -17.789062 8.882812 -17.96875 8.34375 -17.96875 C 7.800781 -17.96875 7.363281 -17.875 7.03125 -17.6875 C 6.707031 -17.507812 6.429688 -17.257812 6.203125 -16.9375 C 5.722656 -16.269531 5.484375 -15.359375 5.484375 -14.203125 L 5.484375 -12.859375 Z M 8.9375 -12.859375 "/></g></g></g><g fill="#15a149" fill-opacity="1"><g transform="translate(110.127205, 21.896563)"><g><path d="M 1.59375 -18.578125 C 2.332031 -19.734375 3.101562 -20.75 3.90625 -21.625 L 6.875 -19.28125 C 6.476562 -18.789062 6.109375 -18.3125 5.765625 -17.84375 C 5.765625 -17.84375 5.410156 -17.335938 4.703125 -16.328125 Z M 5.234375 -1.546875 C 5.234375 -0.753906 5.25 -0.238281 5.28125 0 L 1.765625 0 L 1.765625 -14.453125 L 5.234375 -14.453125 Z M 5.234375 -1.546875 "/></g></g></g><g fill="#15a149" fill-opacity="1"><g transform="translate(117.224068, 21.896563)"><g><path d="M 5.671875 -1.765625 C 5.671875 -0.953125 5.707031 -0.363281 5.78125 0 L 2.3125 0 L 2.3125 -14.453125 L 5.671875 -14.453125 L 5.671875 -13.21875 C 6.890625 -14.226562 8.191406 -14.734375 9.578125 -14.734375 C 11.085938 -14.734375 12.289062 -14.21875 13.1875 -13.1875 C 14.09375 -12.15625 14.546875 -10.800781 14.546875 -9.125 L 14.546875 -3.625 C 14.546875 -2.0625 14.566406 -1.125 14.609375 -0.8125 C 14.660156 -0.5 14.722656 -0.296875 14.796875 -0.203125 C 14.878906 -0.109375 14.953125 -0.0234375 15.015625 0.046875 L 14.984375 0.09375 C 14.234375 0.03125 13.6875 0 13.34375 0 L 12.375 0 C 12.082031 0 11.6875 0.015625 11.1875 0.046875 L 11.1875 -7.5 C 11.1875 -10.195312 10.367188 -11.546875 8.734375 -11.546875 C 7.515625 -11.546875 6.492188 -10.921875 5.671875 -9.671875 Z M 5.671875 -1.765625 "/></g></g></g><g fill="#15a149" fill-opacity="1"><g transform="translate(133.783417, 21.896563)"><g><path d="M 11.578125 -0.859375 C 10.265625 -0.148438 9.078125 0.203125 8.015625 0.203125 C 6.960938 0.203125 6.054688 0.101562 5.296875 -0.09375 C 4.535156 -0.289062 3.894531 -0.582031 3.375 -0.96875 C 2.300781 -1.75 1.765625 -2.882812 1.765625 -4.375 C 1.765625 -5.695312 2.421875 -6.800781 3.734375 -7.6875 C 5.148438 -8.644531 7.078125 -9.125 9.515625 -9.125 L 10.0625 -9.109375 C 10.175781 -9.097656 10.300781 -9.09375 10.4375 -9.09375 C 10.582031 -9.09375 10.707031 -9.082031 10.8125 -9.0625 C 10.738281 -10.53125 10.101562 -11.390625 8.90625 -11.640625 C 8.507812 -11.722656 8.085938 -11.765625 7.640625 -11.765625 C 7.191406 -11.765625 6.753906 -11.722656 6.328125 -11.640625 C 5.898438 -11.566406 5.484375 -11.46875 5.078125 -11.34375 C 4.179688 -11.050781 3.539062 -10.722656 3.15625 -10.359375 L 3.109375 -10.390625 L 2.703125 -13.4375 C 4.328125 -14.300781 6.109375 -14.734375 8.046875 -14.734375 C 11.054688 -14.734375 12.976562 -13.648438 13.8125 -11.484375 C 14.082031 -10.785156 14.21875 -10.003906 14.21875 -9.140625 L 14.21875 -4.140625 C 14.21875 -3.066406 14.597656 -2.335938 15.359375 -1.953125 L 12.84375 0.34375 C 12.320312 0.0703125 11.898438 -0.328125 11.578125 -0.859375 Z M 10.828125 -6.5625 C 10.578125 -6.613281 10.320312 -6.640625 10.0625 -6.640625 L 9.5 -6.640625 C 7.46875 -6.640625 6.171875 -6.1875 5.609375 -5.28125 C 5.441406 -5.007812 5.359375 -4.726562 5.359375 -4.4375 C 5.359375 -4.144531 5.410156 -3.882812 5.515625 -3.65625 C 5.628906 -3.425781 5.8125 -3.238281 6.0625 -3.09375 C 6.539062 -2.820312 7.25 -2.6875 8.1875 -2.6875 C 9.132812 -2.6875 10.019531 -2.910156 10.84375 -3.359375 C 10.832031 -3.460938 10.828125 -3.566406 10.828125 -3.671875 Z M 10.828125 -6.5625 "/></g></g></g><g fill="#15a149" fill-opacity="1"><g transform="translate(150.287429, 21.896563)"><g><path d="M 5.671875 -1.765625 C 5.671875 -0.953125 5.707031 -0.363281 5.78125 0 L 2.3125 0 L 2.3125 -14.453125 L 5.671875 -14.453125 L 5.671875 -13.21875 C 6.890625 -14.226562 8.191406 -14.734375 9.578125 -14.734375 C 11.085938 -14.734375 12.289062 -14.21875 13.1875 -13.1875 C 14.09375 -12.15625 14.546875 -10.800781 14.546875 -9.125 L 14.546875 -3.625 C 14.546875 -2.0625 14.566406 -1.125 14.609375 -0.8125 C 14.660156 -0.5 14.722656 -0.296875 14.796875 -0.203125 C 14.878906 -0.109375 14.953125 -0.0234375 15.015625 0.046875 L 14.984375 0.09375 C 14.234375 0.03125 13.6875 0 13.34375 0 L 12.375 0 C 12.082031 0 11.6875 0.015625 11.1875 0.046875 L 11.1875 -7.5 C 11.1875 -10.195312 10.367188 -11.546875 8.734375 -11.546875 C 7.515625 -11.546875 6.492188 -10.921875 5.671875 -9.671875 Z M 5.671875 -1.765625 "/></g></g></g><g fill="#15a149" fill-opacity="1"><g transform="translate(166.846777, 21.896563)"><g><path d="M 13.328125 -1.34375 C 12.296875 -0.3125 10.679688 0.203125 8.484375 0.203125 C 6.335938 0.203125 4.585938 -0.445312 3.234375 -1.75 C 1.859375 -3.0625 1.171875 -4.8125 1.171875 -7 C 1.171875 -9.21875 1.847656 -11.039062 3.203125 -12.46875 C 4.640625 -13.976562 6.566406 -14.734375 8.984375 -14.734375 C 10.679688 -14.734375 12.109375 -14.359375 13.265625 -13.609375 L 12.71875 -10.0625 L 12.609375 -10.078125 C 12.171875 -10.617188 11.707031 -10.972656 11.21875 -11.140625 C 10.425781 -11.410156 9.632812 -11.546875 8.84375 -11.546875 C 8.050781 -11.546875 7.425781 -11.441406 6.96875 -11.234375 C 6.519531 -11.035156 6.132812 -10.757812 5.8125 -10.40625 C 5.164062 -9.664062 4.84375 -8.6875 4.84375 -7.46875 C 4.84375 -5.3125 5.585938 -3.898438 7.078125 -3.234375 C 7.597656 -3.015625 8.144531 -2.90625 8.71875 -2.90625 C 9.289062 -2.90625 9.789062 -2.953125 10.21875 -3.046875 C 10.65625 -3.148438 11.046875 -3.289062 11.390625 -3.46875 C 12.140625 -3.84375 12.648438 -4.273438 12.921875 -4.765625 L 13.015625 -4.71875 Z M 13.328125 -1.34375 "/></g></g></g><g fill="#15a149" fill-opacity="1"><g transform="translate(181.040504, 21.896563)"><g><path d="M 1.34375 -7.109375 C 1.34375 -8.191406 1.523438 -9.191406 1.890625 -10.109375 C 2.265625 -11.035156 2.785156 -11.84375 3.453125 -12.53125 C 4.890625 -14 6.769531 -14.734375 9.09375 -14.734375 C 11.0625 -14.734375 12.640625 -14.082031 13.828125 -12.78125 C 15.003906 -11.53125 15.59375 -9.953125 15.59375 -8.046875 C 15.59375 -7.316406 15.535156 -6.820312 15.421875 -6.5625 C 14.503906 -6.300781 12.628906 -6.171875 9.796875 -6.171875 L 4.921875 -6.171875 C 5.160156 -5.179688 5.71875 -4.410156 6.59375 -3.859375 C 7.46875 -3.316406 8.609375 -3.046875 10.015625 -3.046875 C 11.484375 -3.046875 12.742188 -3.304688 13.796875 -3.828125 C 14.066406 -3.960938 14.269531 -4.09375 14.40625 -4.21875 C 14.394531 -3.832031 14.375 -3.4375 14.34375 -3.03125 L 14.1875 -0.875 C 13.488281 -0.394531 12.351562 -0.0625 10.78125 0.125 C 10.320312 0.175781 9.882812 0.203125 9.46875 0.203125 C 7.125 0.203125 5.1875 -0.476562 3.65625 -1.84375 C 2.113281 -3.21875 1.34375 -4.972656 1.34375 -7.109375 Z M 11.90625 -8.859375 C 11.53125 -10.835938 10.453125 -11.828125 8.671875 -11.828125 C 7.265625 -11.828125 6.203125 -11.222656 5.484375 -10.015625 C 5.253906 -9.648438 5.082031 -9.242188 4.96875 -8.796875 C 5.1875 -8.785156 5.457031 -8.773438 5.78125 -8.765625 L 6.8125 -8.765625 C 7.144531 -8.753906 7.46875 -8.75 7.78125 -8.75 L 8.578125 -8.75 C 9.046875 -8.75 9.503906 -8.753906 9.953125 -8.765625 L 11.09375 -8.8125 C 11.394531 -8.820312 11.664062 -8.835938 11.90625 -8.859375 Z M 11.90625 -8.859375 "/></g></g></g><g fill="#15a149" fill-opacity="1"><g transform="translate(197.599853, 21.896563)"><g><path d="M 3.71875 0.109375 C 2.925781 0.0351562 2 0 0.9375 0 L -0.15625 0 L 5.859375 -16.859375 C 6.128906 -17.617188 6.265625 -18.0625 6.265625 -18.1875 C 6.265625 -18.3125 6.257812 -18.382812 6.25 -18.40625 L 6.265625 -18.4375 C 6.867188 -18.40625 7.503906 -18.390625 8.171875 -18.390625 C 8.722656 -18.390625 9.390625 -18.398438 10.171875 -18.421875 L 10.1875 -18.390625 C 10.164062 -18.359375 10.15625 -18.3125 10.15625 -18.25 C 10.15625 -18.070312 10.289062 -17.601562 10.5625 -16.84375 L 16.703125 0.046875 C 16.523438 0.0351562 16.3125 0.03125 16.0625 0.03125 C 16.0625 0.03125 15.820312 0.0195312 15.34375 0 C 15.113281 0 14.90625 0 14.71875 0 L 12.578125 0 L 11.265625 -3.984375 L 5.015625 -3.984375 Z M 10.1875 -7.296875 L 8.109375 -13.734375 L 6.078125 -7.296875 Z M 10.1875 -7.296875 "/></g></g></g><g fill="#15a149" fill-opacity="1"><g transform="translate(214.159201, 21.896563)"><g><path d="M 2.8125 -18.453125 C 3.726562 -18.410156 4.285156 -18.390625 4.484375 -18.390625 L 5.484375 -18.390625 C 5.960938 -18.390625 6.351562 -18.425781 6.65625 -18.5 L 6.640625 0 L 2.8125 0 Z M 2.8125 -18.453125 "/></g></g></g></svg>